<svg xmlns="http://www.w3.org/2000/svg" xmlns:xlink="http://www.w3.org/1999/xlink" viewBox="0 0 135.59 127.03"><defs><style>.cls-1{stroke:#f2f2f2;stroke-miterlimit:10;stroke-width:6px;fill:url(#radial-gradient);}.cls-2{fill:#fff;}</style><radialGradient id="radial-gradient" cx="67.79" cy="63.51" r="62.69" gradientUnits="userSpaceOnUse"><stop offset="0" stop-color="#0071bc"/><stop offset="1" stop-color="#29abe2"/></radialGradient></defs><g id="Layer_2" data-name="Layer 2"><g id="Layer_1-2" data-name="Layer 1"><path class="cls-1" d="M83.78,3h-32A32.82,32.82,0,0,0,23.38,19.42L7.4,47.1a32.8,32.8,0,0,0,0,32.83l16,27.68A32.82,32.82,0,0,0,51.81,124h32a32.83,32.83,0,0,0,28.43-16.42l16-27.68a32.8,32.8,0,0,0,0-32.83l-16-27.68A32.83,32.83,0,0,0,83.78,3Z"/><path class="cls-2" d="M104.57,63.52a8.66,8.66,0,0,0-8.65-8.66,8.34,8.34,0,0,0-1.4.11L79.46,58.73l13.33-8a8.67,8.67,0,1,0-12.12-12.1l-8,13.3,3.75-15.11A8.67,8.67,0,1,0,59.17,35.4a8.33,8.33,0,0,0,.12,1.39l3.79,15.27-8.2-13.49A8.68,8.68,0,1,0,42.82,50.74l13.35,8L41,55a8.67,8.67,0,1,0,.07,17.12l15-3.79L42.84,76.4A8.67,8.67,0,1,0,55,88.47l8-13.32L59.25,90.27a8.67,8.67,0,1,0,17.24,1.36,9.78,9.78,0,0,0-.11-1.41l-3.78-15,8.05,13.31A8.68,8.68,0,1,0,92.74,76.35l-13.32-8L94.54,72.1A8.67,8.67,0,0,0,104.57,63.52Z"/></g></g></svg>